<mxfile host="app.diagrams.net" modified="2022-06-30T07:00:38.507Z" agent="5.0 (Windows NT 10.0; Win64; x64) AppleWebKit/537.36 (KHTML, like Gecko) Chrome/102.0.5005.124 Safari/537.36 Edg/102.0.1245.44" etag="KFKhzuqu2QQEK3yj2UV4" version="18.0.2" type="github">
  <diagram id="C5RBs43oDa-KdzZeNtuy" name="Page-1">
    <mxGraphModel dx="1550" dy="901" grid="0" gridSize="10" guides="1" tooltips="1" connect="1" arrows="1" fold="1" page="1" pageScale="1" pageWidth="827" pageHeight="1169" math="0" shadow="0">
      <root>
        <mxCell id="WIyWlLk6GJQsqaUBKTNV-0" />
        <mxCell id="WIyWlLk6GJQsqaUBKTNV-1" parent="WIyWlLk6GJQsqaUBKTNV-0" />
        <mxCell id="fTjPiD8oKo2GdsgxcUk8-17" style="edgeStyle=orthogonalEdgeStyle;rounded=0;orthogonalLoop=1;jettySize=auto;html=1;exitX=0.5;exitY=1;exitDx=0;exitDy=0;entryX=0.5;entryY=0;entryDx=0;entryDy=0;fontSize=16;" edge="1" parent="WIyWlLk6GJQsqaUBKTNV-1" source="fTjPiD8oKo2GdsgxcUk8-1" target="fTjPiD8oKo2GdsgxcUk8-9">
          <mxGeometry relative="1" as="geometry" />
        </mxCell>
        <mxCell id="fTjPiD8oKo2GdsgxcUk8-1" value="&lt;font style=&quot;font-size: 16px;&quot;&gt;构造网络所需节点，边&lt;/font&gt;" style="rounded=0;whiteSpace=wrap;html=1;" vertex="1" parent="WIyWlLk6GJQsqaUBKTNV-1">
          <mxGeometry x="115" y="194" width="214" height="42" as="geometry" />
        </mxCell>
        <mxCell id="fTjPiD8oKo2GdsgxcUk8-26" style="edgeStyle=orthogonalEdgeStyle;rounded=0;orthogonalLoop=1;jettySize=auto;html=1;exitX=0.5;exitY=1;exitDx=0;exitDy=0;entryX=0.5;entryY=0;entryDx=0;entryDy=0;fontSize=16;" edge="1" parent="WIyWlLk6GJQsqaUBKTNV-1" source="fTjPiD8oKo2GdsgxcUk8-2" target="fTjPiD8oKo2GdsgxcUk8-5">
          <mxGeometry relative="1" as="geometry" />
        </mxCell>
        <mxCell id="fTjPiD8oKo2GdsgxcUk8-2" value="&lt;font style=&quot;font-size: 16px;&quot;&gt;合并T-1日结果和增量结果&lt;/font&gt;" style="rounded=0;whiteSpace=wrap;html=1;" vertex="1" parent="WIyWlLk6GJQsqaUBKTNV-1">
          <mxGeometry x="291" y="446" width="215" height="42" as="geometry" />
        </mxCell>
        <mxCell id="fTjPiD8oKo2GdsgxcUk8-24" style="edgeStyle=orthogonalEdgeStyle;rounded=0;orthogonalLoop=1;jettySize=auto;html=1;exitX=0.5;exitY=1;exitDx=0;exitDy=0;entryX=0;entryY=0.5;entryDx=0;entryDy=0;fontSize=16;" edge="1" parent="WIyWlLk6GJQsqaUBKTNV-1" source="fTjPiD8oKo2GdsgxcUk8-3" target="fTjPiD8oKo2GdsgxcUk8-2">
          <mxGeometry relative="1" as="geometry" />
        </mxCell>
        <mxCell id="fTjPiD8oKo2GdsgxcUk8-3" value="&lt;font style=&quot;font-size: 16px;&quot;&gt;输出T日计算结果&lt;/font&gt;" style="rounded=0;whiteSpace=wrap;html=1;" vertex="1" parent="WIyWlLk6GJQsqaUBKTNV-1">
          <mxGeometry x="115" y="347" width="216" height="42" as="geometry" />
        </mxCell>
        <mxCell id="fTjPiD8oKo2GdsgxcUk8-25" style="edgeStyle=orthogonalEdgeStyle;rounded=0;orthogonalLoop=1;jettySize=auto;html=1;entryX=1;entryY=0.5;entryDx=0;entryDy=0;fontSize=16;" edge="1" parent="WIyWlLk6GJQsqaUBKTNV-1" source="fTjPiD8oKo2GdsgxcUk8-4" target="fTjPiD8oKo2GdsgxcUk8-2">
          <mxGeometry relative="1" as="geometry" />
        </mxCell>
        <mxCell id="fTjPiD8oKo2GdsgxcUk8-4" value="&lt;font style=&quot;font-size: 16px;&quot;&gt;输出增量结果&lt;/font&gt;" style="rounded=0;whiteSpace=wrap;html=1;" vertex="1" parent="WIyWlLk6GJQsqaUBKTNV-1">
          <mxGeometry x="462" y="347" width="203" height="42" as="geometry" />
        </mxCell>
        <mxCell id="fTjPiD8oKo2GdsgxcUk8-5" value="&lt;font style=&quot;font-size: 16px;&quot;&gt;输出T日计算结果&lt;/font&gt;" style="rounded=0;whiteSpace=wrap;html=1;" vertex="1" parent="WIyWlLk6GJQsqaUBKTNV-1">
          <mxGeometry x="316" y="532" width="165" height="42" as="geometry" />
        </mxCell>
        <mxCell id="fTjPiD8oKo2GdsgxcUk8-16" style="edgeStyle=orthogonalEdgeStyle;rounded=0;orthogonalLoop=1;jettySize=auto;html=1;exitX=0.5;exitY=1;exitDx=0;exitDy=0;fontSize=16;" edge="1" parent="WIyWlLk6GJQsqaUBKTNV-1" source="fTjPiD8oKo2GdsgxcUk8-6" target="fTjPiD8oKo2GdsgxcUk8-1">
          <mxGeometry relative="1" as="geometry" />
        </mxCell>
        <mxCell id="fTjPiD8oKo2GdsgxcUk8-6" value="&lt;font style=&quot;font-size: 16px;&quot;&gt;数据清洗&lt;/font&gt;" style="rounded=0;whiteSpace=wrap;html=1;" vertex="1" parent="WIyWlLk6GJQsqaUBKTNV-1">
          <mxGeometry x="140" y="117" width="165" height="42" as="geometry" />
        </mxCell>
        <mxCell id="fTjPiD8oKo2GdsgxcUk8-15" style="edgeStyle=orthogonalEdgeStyle;rounded=0;orthogonalLoop=1;jettySize=auto;html=1;exitX=0.5;exitY=1;exitDx=0;exitDy=0;fontSize=16;" edge="1" parent="WIyWlLk6GJQsqaUBKTNV-1" source="fTjPiD8oKo2GdsgxcUk8-7">
          <mxGeometry relative="1" as="geometry">
            <mxPoint x="226" y="113" as="targetPoint" />
          </mxGeometry>
        </mxCell>
        <mxCell id="fTjPiD8oKo2GdsgxcUk8-7" value="&lt;font style=&quot;font-size: 16px;&quot;&gt;T-1日历史全量各来源渠道数据&lt;/font&gt;" style="rounded=0;whiteSpace=wrap;html=1;" vertex="1" parent="WIyWlLk6GJQsqaUBKTNV-1">
          <mxGeometry x="103" y="37" width="237" height="42" as="geometry" />
        </mxCell>
        <mxCell id="fTjPiD8oKo2GdsgxcUk8-20" style="edgeStyle=orthogonalEdgeStyle;rounded=0;orthogonalLoop=1;jettySize=auto;html=1;exitX=0.5;exitY=1;exitDx=0;exitDy=0;entryX=0.5;entryY=0;entryDx=0;entryDy=0;fontSize=16;" edge="1" parent="WIyWlLk6GJQsqaUBKTNV-1" source="fTjPiD8oKo2GdsgxcUk8-8" target="fTjPiD8oKo2GdsgxcUk8-12">
          <mxGeometry relative="1" as="geometry" />
        </mxCell>
        <mxCell id="fTjPiD8oKo2GdsgxcUk8-8" value="&lt;font style=&quot;font-size: 16px;&quot;&gt;T日各来源渠道每天增量数据&lt;/font&gt;" style="rounded=0;whiteSpace=wrap;html=1;" vertex="1" parent="WIyWlLk6GJQsqaUBKTNV-1">
          <mxGeometry x="445" y="37" width="240" height="42" as="geometry" />
        </mxCell>
        <mxCell id="fTjPiD8oKo2GdsgxcUk8-18" style="edgeStyle=orthogonalEdgeStyle;rounded=0;orthogonalLoop=1;jettySize=auto;html=1;fontSize=16;" edge="1" parent="WIyWlLk6GJQsqaUBKTNV-1" source="fTjPiD8oKo2GdsgxcUk8-9" target="fTjPiD8oKo2GdsgxcUk8-3">
          <mxGeometry relative="1" as="geometry" />
        </mxCell>
        <mxCell id="fTjPiD8oKo2GdsgxcUk8-9" value="&lt;font style=&quot;font-size: 16px;&quot;&gt;T-1日全量图计算&lt;/font&gt;" style="rounded=0;whiteSpace=wrap;html=1;" vertex="1" parent="WIyWlLk6GJQsqaUBKTNV-1">
          <mxGeometry x="140" y="271" width="165" height="42" as="geometry" />
        </mxCell>
        <mxCell id="fTjPiD8oKo2GdsgxcUk8-21" style="edgeStyle=orthogonalEdgeStyle;rounded=0;orthogonalLoop=1;jettySize=auto;html=1;exitX=0.5;exitY=1;exitDx=0;exitDy=0;entryX=0.5;entryY=0;entryDx=0;entryDy=0;fontSize=16;" edge="1" parent="WIyWlLk6GJQsqaUBKTNV-1" source="fTjPiD8oKo2GdsgxcUk8-12" target="fTjPiD8oKo2GdsgxcUk8-13">
          <mxGeometry relative="1" as="geometry" />
        </mxCell>
        <mxCell id="fTjPiD8oKo2GdsgxcUk8-12" value="&lt;font style=&quot;font-size: 16px;&quot;&gt;数据清洗&lt;/font&gt;" style="rounded=0;whiteSpace=wrap;html=1;" vertex="1" parent="WIyWlLk6GJQsqaUBKTNV-1">
          <mxGeometry x="478" y="117" width="165" height="42" as="geometry" />
        </mxCell>
        <mxCell id="fTjPiD8oKo2GdsgxcUk8-22" style="edgeStyle=orthogonalEdgeStyle;rounded=0;orthogonalLoop=1;jettySize=auto;html=1;exitX=0.5;exitY=1;exitDx=0;exitDy=0;entryX=0.5;entryY=0;entryDx=0;entryDy=0;fontSize=16;" edge="1" parent="WIyWlLk6GJQsqaUBKTNV-1" source="fTjPiD8oKo2GdsgxcUk8-13" target="fTjPiD8oKo2GdsgxcUk8-14">
          <mxGeometry relative="1" as="geometry" />
        </mxCell>
        <mxCell id="fTjPiD8oKo2GdsgxcUk8-13" value="&lt;font style=&quot;font-size: 16px;&quot;&gt;构造网络所需节点，边&lt;/font&gt;" style="rounded=0;whiteSpace=wrap;html=1;" vertex="1" parent="WIyWlLk6GJQsqaUBKTNV-1">
          <mxGeometry x="456.5" y="194" width="214" height="42" as="geometry" />
        </mxCell>
        <mxCell id="fTjPiD8oKo2GdsgxcUk8-23" style="edgeStyle=orthogonalEdgeStyle;rounded=0;orthogonalLoop=1;jettySize=auto;html=1;exitX=0.5;exitY=1;exitDx=0;exitDy=0;entryX=0.5;entryY=0;entryDx=0;entryDy=0;fontSize=16;" edge="1" parent="WIyWlLk6GJQsqaUBKTNV-1" source="fTjPiD8oKo2GdsgxcUk8-14" target="fTjPiD8oKo2GdsgxcUk8-4">
          <mxGeometry relative="1" as="geometry" />
        </mxCell>
        <mxCell id="fTjPiD8oKo2GdsgxcUk8-14" value="&lt;font style=&quot;font-size: 16px;&quot;&gt;T日增量图计算&lt;/font&gt;" style="rounded=0;whiteSpace=wrap;html=1;" vertex="1" parent="WIyWlLk6GJQsqaUBKTNV-1">
          <mxGeometry x="481" y="271" width="165" height="42" as="geometry" />
        </mxCell>
      </root>
    </mxGraphModel>
  </diagram>
</mxfile>
